<?xml version="1.0" encoding="UTF-8"?>
<svg width="114px" height="138px" viewBox="0 0 114 138" version="1.1" xmlns="http://www.w3.org/2000/svg" xmlns:xlink="http://www.w3.org/1999/xlink">
    <!-- Generator: Sketch 43.2 (39069) - http://www.bohemiancoding.com/sketch -->
    <title>Group 6</title>
    <desc>Created with Sketch.</desc>
    <defs></defs>
    <g id="Page-2" stroke="none" stroke-width="1" fill="none" fill-rule="evenodd">
        <g id="Group-6">
            <g id="Group-Copy-25" transform="translate(79.574699, 69.199802) scale(-1, 1) translate(-79.574699, -69.199802) translate(45.172332, 34.797435)">
                <path d="M45.7113018,34.2627337 L68.3406391,34.2849941 C68.3406391,34.2849941 68.3406391,34.3558225 68.3406391,34.2849941 L45.4833018,0.254307692 L45.4833018,0.254307692 L45.4833018,0.254307692 L22.8087692,0.254307692 L22.8087692,0.254307692 L33.3783905,15.4992781 L45.7113018,34.2627337 L45.7113018,34.2627337 Z" id="Shape" fill="#420756"></path>
                <path d="M68.3406391,34.5629112 L68.3406391,34.5629112 C68.3406391,34.5629112 68.3406391,34.6337396 68.3406391,34.5629112 L45.4833018,0.532899408 L45.4833018,0.532899408 L45.4833018,0.532899408 L22.8087692,0.532899408 L22.8087692,0.532899408 L45.9048994,16.1610178 L68.3406391,34.5629112 L68.3406391,34.5629112 Z" id="Shape" fill="#4F1165"></path>
                <path d="M22.6725089,34.4563314 L0.0431715976,34.4785917 C0.0431715976,34.4785917 0.0431715976,34.5494201 0.0431715976,34.4785917 L22.9005089,0.448579882 L22.9005089,0.448579882 C22.9005089,0.448579882 22.7993254,0.448579882 22.9005089,0.448579882 L45.5750414,0.448579882 L45.5750414,0.448579882 L35.0054201,15.6928757 L22.6725089,34.4563314 L22.6725089,34.4563314 Z" id="Shape" fill="#B30EEC"></path>
                <path d="M45.7113018,33.8546272 L68.3406391,33.8323669 C68.3406391,33.8323669 68.3406391,33.7615385 68.3406391,33.8323669 L45.4833018,67.8623787 L45.4833018,67.8623787 L45.4833018,67.8623787 L22.8087692,67.8623787 L22.8087692,67.8623787 L33.3783905,52.6180828 L45.7113018,33.8546272 L45.7113018,33.8546272 Z" id="Shape" fill="#681485"></path>
                <path d="M22.8087692,67.8306746 L22.8087692,67.8306746 C22.8087692,67.8306746 22.8087692,67.9021775 22.8087692,67.8306746 L45.6667811,33.8006627 L45.6667811,33.8006627 C45.6667811,33.8006627 45.5655976,33.8006627 45.6667811,33.8006627 L68.3406391,33.8006627 L68.3406391,33.8006627 L45.2445089,49.4287811 L22.8087692,67.8306746 L22.8087692,67.8306746 Z" id="Shape" fill="#420756"></path>
                <path d="M22.9457041,68.4600355 L45.5750414,68.4822959 C45.5750414,68.4822959 45.5750414,68.5531243 45.5750414,68.4822959 L22.7170296,34.452284 L22.7170296,34.452284 L22.7170296,34.452284 L0.0431715976,34.452284 L0.0431715976,34.452284 L10.6121183,49.6965799 L22.9457041,68.4600355 L22.9457041,68.4600355 Z" id="Shape" fill="#B30EEC"></path>
                <path d="M0.0431715976,34.4839882 L0.0431715976,34.4839882 C0.0431715976,34.4839882 0.0431715976,34.4124852 0.0431715976,34.4839882 L22.9005089,68.514 L22.9005089,68.514 C22.9005089,68.514 22.7993254,68.514 22.9005089,68.514 L45.5750414,68.514 L45.5750414,68.514 L22.4789112,52.8858817 L0.0431715976,34.4839882 L0.0431715976,34.4839882 Z" id="Shape" fill="#9D10CF"></path>
                <path d="M0.0431715976,34.2849941 L0.0431715976,34.2849941 C0.0431715976,34.2849941 0.0431715976,34.3558225 0.0431715976,34.2849941 L22.9005089,0.254307692 L22.9005089,0.254307692 C22.9005089,0.254307692 22.7993254,0.254307692 22.9005089,0.254307692 L45.5750414,0.254307692 L45.5750414,0.254307692 L22.4789112,15.882426 L0.0431715976,34.2849941 L0.0431715976,34.2849941 Z" id="Shape" fill="#9D10CF"></path>
            </g>
            <g id="Group-Copy-24" transform="translate(1.326179, 0.395068)">
                <path d="M45.7113018,34.2627337 L68.3406391,34.2849941 C68.3406391,34.2849941 68.3406391,34.3558225 68.3406391,34.2849941 L45.4833018,0.254307692 L45.4833018,0.254307692 L45.4833018,0.254307692 L22.8087692,0.254307692 L22.8087692,0.254307692 L33.3783905,15.4992781 L45.7113018,34.2627337 L45.7113018,34.2627337 Z" id="Shape" fill="#420756"></path>
                <path d="M68.3406391,34.5629112 L68.3406391,34.5629112 C68.3406391,34.5629112 68.3406391,34.6337396 68.3406391,34.5629112 L45.4833018,0.532899408 L45.4833018,0.532899408 L45.4833018,0.532899408 L22.8087692,0.532899408 L22.8087692,0.532899408 L45.9048994,16.1610178 L68.3406391,34.5629112 L68.3406391,34.5629112 Z" id="Shape" fill="#4F1165"></path>
                <path d="M22.6725089,34.4563314 L0.0431715976,34.4785917 C0.0431715976,34.4785917 0.0431715976,34.5494201 0.0431715976,34.4785917 L22.9005089,0.448579882 L22.9005089,0.448579882 C22.9005089,0.448579882 22.7993254,0.448579882 22.9005089,0.448579882 L45.5750414,0.448579882 L45.5750414,0.448579882 L35.0054201,15.6928757 L22.6725089,34.4563314 L22.6725089,34.4563314 Z" id="Shape" fill="#B30EEC"></path>
                <path d="M45.7113018,33.8546272 L68.3406391,33.8323669 C68.3406391,33.8323669 68.3406391,33.7615385 68.3406391,33.8323669 L45.4833018,67.8623787 L45.4833018,67.8623787 L45.4833018,67.8623787 L22.8087692,67.8623787 L22.8087692,67.8623787 L33.3783905,52.6180828 L45.7113018,33.8546272 L45.7113018,33.8546272 Z" id="Shape" fill="#681485"></path>
                <path d="M22.8087692,67.8306746 L22.8087692,67.8306746 C22.8087692,67.8306746 22.8087692,67.9021775 22.8087692,67.8306746 L45.6667811,33.8006627 L45.6667811,33.8006627 C45.6667811,33.8006627 45.5655976,33.8006627 45.6667811,33.8006627 L68.3406391,33.8006627 L68.3406391,33.8006627 L45.2445089,49.4287811 L22.8087692,67.8306746 L22.8087692,67.8306746 Z" id="Shape" fill="#420756"></path>
                <path d="M22.9457041,68.4600355 L45.5750414,68.4822959 C45.5750414,68.4822959 45.5750414,68.5531243 45.5750414,68.4822959 L22.7170296,34.452284 L22.7170296,34.452284 L22.7170296,34.452284 L0.0431715976,34.452284 L0.0431715976,34.452284 L10.6121183,49.6965799 L22.9457041,68.4600355 L22.9457041,68.4600355 Z" id="Shape" fill="#B30EEC"></path>
                <path d="M0.0431715976,34.4839882 L0.0431715976,34.4839882 C0.0431715976,34.4839882 0.0431715976,34.4124852 0.0431715976,34.4839882 L22.9005089,68.514 L22.9005089,68.514 C22.9005089,68.514 22.7993254,68.514 22.9005089,68.514 L45.5750414,68.514 L45.5750414,68.514 L22.4789112,52.8858817 L0.0431715976,34.4839882 L0.0431715976,34.4839882 Z" id="Shape" fill="#9D10CF"></path>
                <path d="M0.0431715976,34.2849941 L0.0431715976,34.2849941 C0.0431715976,34.2849941 0.0431715976,34.3558225 0.0431715976,34.2849941 L22.9005089,0.254307692 L22.9005089,0.254307692 C22.9005089,0.254307692 22.7993254,0.254307692 22.9005089,0.254307692 L45.5750414,0.254307692 L45.5750414,0.254307692 L22.4789112,15.882426 L0.0431715976,34.2849941 L0.0431715976,34.2849941 Z" id="Shape" fill="#9D10CF"></path>
            </g>
            <g id="Group-Copy-23" transform="translate(0.651622, 68.525246)">
                <path d="M45.7113018,34.2627337 L68.3406391,34.2849941 C68.3406391,34.2849941 68.3406391,34.3558225 68.3406391,34.2849941 L45.4833018,0.254307692 L45.4833018,0.254307692 L45.4833018,0.254307692 L22.8087692,0.254307692 L22.8087692,0.254307692 L33.3783905,15.4992781 L45.7113018,34.2627337 L45.7113018,34.2627337 Z" id="Shape" fill="#420756"></path>
                <path d="M68.3406391,34.5629112 L68.3406391,34.5629112 C68.3406391,34.5629112 68.3406391,34.6337396 68.3406391,34.5629112 L45.4833018,0.532899408 L45.4833018,0.532899408 L45.4833018,0.532899408 L22.8087692,0.532899408 L22.8087692,0.532899408 L45.9048994,16.1610178 L68.3406391,34.5629112 L68.3406391,34.5629112 Z" id="Shape" fill="#4F1165"></path>
                <path d="M22.6725089,34.4563314 L0.0431715976,34.4785917 C0.0431715976,34.4785917 0.0431715976,34.5494201 0.0431715976,34.4785917 L22.9005089,0.448579882 L22.9005089,0.448579882 C22.9005089,0.448579882 22.7993254,0.448579882 22.9005089,0.448579882 L45.5750414,0.448579882 L45.5750414,0.448579882 L35.0054201,15.6928757 L22.6725089,34.4563314 L22.6725089,34.4563314 Z" id="Shape" fill="#B30EEC"></path>
                <path d="M45.7113018,33.8546272 L68.3406391,33.8323669 C68.3406391,33.8323669 68.3406391,33.7615385 68.3406391,33.8323669 L45.4833018,67.8623787 L45.4833018,67.8623787 L45.4833018,67.8623787 L22.8087692,67.8623787 L22.8087692,67.8623787 L33.3783905,52.6180828 L45.7113018,33.8546272 L45.7113018,33.8546272 Z" id="Shape" fill="#681485"></path>
                <path d="M22.8087692,67.8306746 L22.8087692,67.8306746 C22.8087692,67.8306746 22.8087692,67.9021775 22.8087692,67.8306746 L45.6667811,33.8006627 L45.6667811,33.8006627 C45.6667811,33.8006627 45.5655976,33.8006627 45.6667811,33.8006627 L68.3406391,33.8006627 L68.3406391,33.8006627 L45.2445089,49.4287811 L22.8087692,67.8306746 L22.8087692,67.8306746 Z" id="Shape" fill="#420756"></path>
                <path d="M22.9457041,68.4600355 L45.5750414,68.4822959 C45.5750414,68.4822959 45.5750414,68.5531243 45.5750414,68.4822959 L22.7170296,34.452284 L22.7170296,34.452284 L22.7170296,34.452284 L0.0431715976,34.452284 L0.0431715976,34.452284 L10.6121183,49.6965799 L22.9457041,68.4600355 L22.9457041,68.4600355 Z" id="Shape" fill="#B30EEC"></path>
                <path d="M0.0431715976,34.4839882 L0.0431715976,34.4839882 C0.0431715976,34.4839882 0.0431715976,34.4124852 0.0431715976,34.4839882 L22.9005089,68.514 L22.9005089,68.514 C22.9005089,68.514 22.7993254,68.514 22.9005089,68.514 L45.5750414,68.514 L45.5750414,68.514 L22.4789112,52.8858817 L0.0431715976,34.4839882 L0.0431715976,34.4839882 Z" id="Shape" fill="#9D10CF"></path>
                <path d="M0.0431715976,34.2849941 L0.0431715976,34.2849941 C0.0431715976,34.2849941 0.0431715976,34.3558225 0.0431715976,34.2849941 L22.9005089,0.254307692 L22.9005089,0.254307692 C22.9005089,0.254307692 22.7993254,0.254307692 22.9005089,0.254307692 L45.5750414,0.254307692 L45.5750414,0.254307692 L22.4789112,15.882426 L0.0431715976,34.2849941 L0.0431715976,34.2849941 Z" id="Shape" fill="#9D10CF"></path>
            </g>
        </g>
    </g>
</svg>