<?xml version="1.0" encoding="UTF-8"?>
<svg width="64px" height="64px" viewBox="0 0 64 64" version="1.1" xmlns="http://www.w3.org/2000/svg" xmlns:xlink="http://www.w3.org/1999/xlink">
    <!-- Generator: Sketch 43.2 (39069) - http://www.bohemiancoding.com/sketch -->
    <title>Group 3 Copy</title>
    <desc>Created with Sketch.</desc>
    <defs></defs>
    <g id="Page-2" stroke="none" stroke-width="1" fill="none" fill-rule="evenodd">
        <g id="Group-3-Copy" transform="translate(-0.007419, -0.296111)">
            <rect id="Rectangle" stroke="#979797" stroke-width="0.01" x="0.252908826" y="0.250210051" width="63.7409728" height="63.7409728"></rect>
            <g id="Group-2" transform="translate(13.757885, 6.595405)">
                <g id="Group-Copy-19" transform="translate(0.026303, 0.120696)">
                    <path d="M16.8698869,12.7807142 L25.2237546,12.7889321 C25.2237546,12.7889321 25.2237546,12.815329 25.2237546,12.7889321 L16.7854667,0.226006053 L16.7854667,0.226006053 L16.7854667,0.226006053 L8.41466512,0.226006053 L8.41466512,0.226006053 L12.3166729,5.85402162 L16.8698869,12.7807142 L16.8698869,12.7807142 Z" id="Shape-Copy-40" fill="#255FA3"></path>
                    <path d="M25.2237546,12.8917804 L25.2237546,12.8917804 C25.2237546,12.8917804 25.2237546,12.9179282 25.2237546,12.8917804 L16.7854667,0.328854302 L16.7854667,0.328854302 L16.7854667,0.328854302 L8.41466512,0.328854302 L8.41466512,0.328854302 L16.9411087,6.09806831 L25.2237546,12.8917804 L25.2237546,12.8917804 Z" id="Shape-Copy-39" fill="#346EB2"></path>
                    <path d="M8.36436162,12.8524341 L0.0102448854,12.860652 C0.0102448854,12.860652 0.0102448854,12.8867998 0.0102448854,12.860652 L8.44853282,0.29747687 L8.44853282,0.29747687 C8.44853282,0.29747687 8.41117874,0.29747687 8.44853282,0.29747687 L16.8193344,0.29747687 L16.8193344,0.29747687 L12.9173266,5.92549243 L8.36436162,12.8524341 L8.36436162,12.8524341 Z" id="Shape-Copy-38" fill="#4990E2"></path>
                    <path d="M16.8698869,12.6303018 L25.2237546,12.6220839 C25.2237546,12.6220839 25.2237546,12.595687 25.2237546,12.6220839 L16.7854667,25.1850099 L16.7854667,25.1850099 L16.7854667,25.1850099 L8.41466512,25.1850099 L8.41466512,25.1850099 L12.3166729,19.5569944 L16.8698869,12.6303018 L16.8698869,12.6303018 Z" id="Shape-Copy-37" fill="#346EB2"></path>
                    <path d="M8.41466512,25.1733057 L8.41466512,25.1733057 C8.41466512,25.1733057 8.41466512,25.1997026 8.41466512,25.1733057 L16.8532021,12.6103796 L16.8532021,12.6103796 C16.8532021,12.6103796 16.815848,12.6103796 16.8532021,12.6103796 L25.2237546,12.6103796 L25.2237546,12.6103796 L16.6975601,18.3798426 L8.41466512,25.1733057 L8.41466512,25.1733057 Z" id="Shape-Copy-36" fill="#255FA3"></path>
                    <path d="M8.46521765,25.4056481 L16.8193344,25.413866 C16.8193344,25.413866 16.8193344,25.4400138 16.8193344,25.413866 L8.38079741,12.8509399 L8.38079741,12.8509399 L8.38079741,12.8509399 L0.0102448854,12.8509399 L0.0102448854,12.8509399 L3.91225267,18.4787064 L8.46521765,25.4056481 L8.46521765,25.4056481 Z" id="Shape-Copy-35" fill="#4990E2"></path>
                    <path d="M0.0102448854,12.8623952 L0.0102448854,12.8623952 C0.0102448854,12.8623952 0.0102448854,12.8362473 0.0102448854,12.8623952 L8.44853282,25.4255703 L8.44853282,25.4255703 C8.44853282,25.4255703 8.41117874,25.4255703 8.44853282,25.4255703 L16.8193344,25.4255703 L16.8193344,25.4255703 L8.2928908,19.6561072 L0.0102448854,12.8623952 L0.0102448854,12.8623952 Z" id="Shape-Copy-34" fill="#3F85D7"></path>
                    <path d="M0.0102448854,12.7889321 L0.0102448854,12.7889321 C0.0102448854,12.7889321 0.0102448854,12.815329 0.0102448854,12.7889321 L8.44853282,0.226006053 L8.44853282,0.226006053 C8.44853282,0.226006053 8.41117874,0.226006053 8.44853282,0.226006053 L16.8193344,0.226006053 L16.8193344,0.226006053 L8.2928908,5.99546909 L0.0102448854,12.7889321 L0.0102448854,12.7889321 Z" id="Shape-Copy-33" fill="#3F85D8"></path>
                </g>
                <g id="Group-Copy-18" transform="translate(0.026303, 25.272447)">
                    <path d="M16.8698869,12.7807142 L25.2237546,12.7889321 C25.2237546,12.7889321 25.2237546,12.815329 25.2237546,12.7889321 L16.7854667,0.226006053 L16.7854667,0.226006053 L16.7854667,0.226006053 L8.41466512,0.226006053 L8.41466512,0.226006053 L12.3166729,5.85402162 L16.8698869,12.7807142 L16.8698869,12.7807142 Z" id="Shape-Copy-40" fill="#255FA3"></path>
                    <path d="M25.2237546,12.8917804 L25.2237546,12.8917804 C25.2237546,12.8917804 25.2237546,12.9179282 25.2237546,12.8917804 L16.7854667,0.328854302 L16.7854667,0.328854302 L16.7854667,0.328854302 L8.41466512,0.328854302 L8.41466512,0.328854302 L16.9411087,6.09806831 L25.2237546,12.8917804 L25.2237546,12.8917804 Z" id="Shape-Copy-39" fill="#346EB2"></path>
                    <path d="M8.36436162,12.8524341 L0.0102448854,12.860652 C0.0102448854,12.860652 0.0102448854,12.8867998 0.0102448854,12.860652 L8.44853282,0.29747687 L8.44853282,0.29747687 C8.44853282,0.29747687 8.41117874,0.29747687 8.44853282,0.29747687 L16.8193344,0.29747687 L16.8193344,0.29747687 L12.9173266,5.92549243 L8.36436162,12.8524341 L8.36436162,12.8524341 Z" id="Shape-Copy-38" fill="#4990E2"></path>
                    <path d="M16.8698869,12.6303018 L25.2237546,12.6220839 C25.2237546,12.6220839 25.2237546,12.595687 25.2237546,12.6220839 L16.7854667,25.1850099 L16.7854667,25.1850099 L16.7854667,25.1850099 L8.41466512,25.1850099 L8.41466512,25.1850099 L12.3166729,19.5569944 L16.8698869,12.6303018 L16.8698869,12.6303018 Z" id="Shape-Copy-37" fill="#346EB2"></path>
                    <path d="M8.41466512,25.1733057 L8.41466512,25.1733057 C8.41466512,25.1733057 8.41466512,25.1997026 8.41466512,25.1733057 L16.8532021,12.6103796 L16.8532021,12.6103796 C16.8532021,12.6103796 16.815848,12.6103796 16.8532021,12.6103796 L25.2237546,12.6103796 L25.2237546,12.6103796 L16.6975601,18.3798426 L8.41466512,25.1733057 L8.41466512,25.1733057 Z" id="Shape-Copy-36" fill="#255FA3"></path>
                    <path d="M8.46521765,25.4056481 L16.8193344,25.413866 C16.8193344,25.413866 16.8193344,25.4400138 16.8193344,25.413866 L8.38079741,12.8509399 L8.38079741,12.8509399 L8.38079741,12.8509399 L0.0102448854,12.8509399 L0.0102448854,12.8509399 L3.91225267,18.4787064 L8.46521765,25.4056481 L8.46521765,25.4056481 Z" id="Shape-Copy-35" fill="#4990E2"></path>
                    <path d="M0.0102448854,12.8623952 L0.0102448854,12.8623952 C0.0102448854,12.8623952 0.0102448854,12.8362473 0.0102448854,12.8623952 L8.44853282,25.4255703 L8.44853282,25.4255703 C8.44853282,25.4255703 8.41117874,25.4255703 8.44853282,25.4255703 L16.8193344,25.4255703 L16.8193344,25.4255703 L8.2928908,19.6561072 L0.0102448854,12.8623952 L0.0102448854,12.8623952 Z" id="Shape-Copy-34" fill="#3F85D7"></path>
                    <path d="M0.0102448854,12.7889321 L0.0102448854,12.7889321 C0.0102448854,12.7889321 0.0102448854,12.815329 0.0102448854,12.7889321 L8.44853282,0.226006053 L8.44853282,0.226006053 C8.44853282,0.226006053 8.41117874,0.226006053 8.44853282,0.226006053 L16.8193344,0.226006053 L16.8193344,0.226006053 L8.2928908,5.99546909 L0.0102448854,12.7889321 L0.0102448854,12.7889321 Z" id="Shape-Copy-33" fill="#3F85D8"></path>
                </g>
                <g id="Group-Copy-17" transform="translate(29.127720, 25.395188) scale(-1, 1) translate(-29.127720, -25.395188) translate(16.427331, 12.570286)">
                    <path d="M16.8698869,12.7807142 L25.2237546,12.7889321 C25.2237546,12.7889321 25.2237546,12.815329 25.2237546,12.7889321 L16.7854667,0.226006053 L16.7854667,0.226006053 L16.7854667,0.226006053 L8.41466512,0.226006053 L8.41466512,0.226006053 L12.3166729,5.85402162 L16.8698869,12.7807142 L16.8698869,12.7807142 Z" id="Shape-Copy-40" fill="#255FA3"></path>
                    <path d="M25.2237546,12.8917804 L25.2237546,12.8917804 C25.2237546,12.8917804 25.2237546,12.9179282 25.2237546,12.8917804 L16.7854667,0.328854302 L16.7854667,0.328854302 L16.7854667,0.328854302 L8.41466512,0.328854302 L8.41466512,0.328854302 L16.9411087,6.09806831 L25.2237546,12.8917804 L25.2237546,12.8917804 Z" id="Shape-Copy-39" fill="#346EB2"></path>
                    <path d="M8.36436162,12.8524341 L0.0102448854,12.860652 C0.0102448854,12.860652 0.0102448854,12.8867998 0.0102448854,12.860652 L8.44853282,0.29747687 L8.44853282,0.29747687 C8.44853282,0.29747687 8.41117874,0.29747687 8.44853282,0.29747687 L16.8193344,0.29747687 L16.8193344,0.29747687 L12.9173266,5.92549243 L8.36436162,12.8524341 L8.36436162,12.8524341 Z" id="Shape-Copy-38" fill="#4990E2"></path>
                    <path d="M16.8698869,12.6303018 L25.2237546,12.6220839 C25.2237546,12.6220839 25.2237546,12.595687 25.2237546,12.6220839 L16.7854667,25.1850099 L16.7854667,25.1850099 L16.7854667,25.1850099 L8.41466512,25.1850099 L8.41466512,25.1850099 L12.3166729,19.5569944 L16.8698869,12.6303018 L16.8698869,12.6303018 Z" id="Shape-Copy-37" fill="#346EB2"></path>
                    <path d="M8.41466512,25.1733057 L8.41466512,25.1733057 C8.41466512,25.1733057 8.41466512,25.1997026 8.41466512,25.1733057 L16.8532021,12.6103796 L16.8532021,12.6103796 C16.8532021,12.6103796 16.815848,12.6103796 16.8532021,12.6103796 L25.2237546,12.6103796 L25.2237546,12.6103796 L16.6975601,18.3798426 L8.41466512,25.1733057 L8.41466512,25.1733057 Z" id="Shape-Copy-36" fill="#255FA3"></path>
                    <path d="M8.46521765,25.4056481 L16.8193344,25.413866 C16.8193344,25.413866 16.8193344,25.4400138 16.8193344,25.413866 L8.38079741,12.8509399 L8.38079741,12.8509399 L8.38079741,12.8509399 L0.0102448854,12.8509399 L0.0102448854,12.8509399 L3.91225267,18.4787064 L8.46521765,25.4056481 L8.46521765,25.4056481 Z" id="Shape-Copy-35" fill="#4990E2"></path>
                    <path d="M0.0102448854,12.8623952 L0.0102448854,12.8623952 C0.0102448854,12.8623952 0.0102448854,12.8362473 0.0102448854,12.8623952 L8.44853282,25.4255703 L8.44853282,25.4255703 C8.44853282,25.4255703 8.41117874,25.4255703 8.44853282,25.4255703 L16.8193344,25.4255703 L16.8193344,25.4255703 L8.2928908,19.6561072 L0.0102448854,12.8623952 L0.0102448854,12.8623952 Z" id="Shape-Copy-34" fill="#3F85D7"></path>
                    <path d="M0.0102448854,12.7889321 L0.0102448854,12.7889321 C0.0102448854,12.7889321 0.0102448854,12.815329 0.0102448854,12.7889321 L8.44853282,0.226006053 L8.44853282,0.226006053 C8.44853282,0.226006053 8.41117874,0.226006053 8.44853282,0.226006053 L16.8193344,0.226006053 L16.8193344,0.226006053 L8.2928908,5.99546909 L0.0102448854,12.7889321 L0.0102448854,12.7889321 Z" id="Shape-Copy-33" fill="#3F85D8"></path>
                </g>
            </g>
        </g>
    </g>
</svg>