<?xml version="1.0" encoding="UTF-8"?>
<svg width="763px" height="207px" viewBox="0 0 763 207" version="1.1" xmlns="http://www.w3.org/2000/svg" xmlns:xlink="http://www.w3.org/1999/xlink">
    <!-- Generator: Sketch 43.2 (39069) - http://www.bohemiancoding.com/sketch -->
    <title>Group 7</title>
    <desc>Created with Sketch.</desc>
    <defs></defs>
    <g id="Page-2" stroke="none" stroke-width="1" fill="none" fill-rule="evenodd">
        <g id="Group-7" transform="translate(-2.000000, -1.000000)">
            <g id="Group-6-Copy" transform="translate(0.920221, 0.299739)">
                <g id="Group-Copy-25" transform="translate(120.060073, 104.406719) scale(-1, 1) translate(-120.060073, -104.406719) translate(68.154747, 52.501394)">
                    <path d="M68.967929,51.6946509 L103.110438,51.7282367 C103.110438,51.7282367 103.110438,51.8351006 103.110438,51.7282367 L68.623929,0.383692308 L68.623929,0.383692308 L68.623929,0.383692308 L34.4132308,0.383692308 L34.4132308,0.383692308 L50.3603787,23.3848757 L68.967929,51.6946509 L68.967929,51.6946509 Z" id="Shape" fill="#420756"></path>
                    <path d="M103.110438,52.1475503 L103.110438,52.1475503 C103.110438,52.1475503 103.110438,52.2544142 103.110438,52.1475503 L68.623929,0.804023669 L68.623929,0.804023669 L68.623929,0.804023669 L34.4132308,0.804023669 L34.4132308,0.804023669 L69.2600237,24.3832899 L103.110438,52.1475503 L103.110438,52.1475503 Z" id="Shape" fill="#4F1165"></path>
                    <path d="M34.207645,51.9867456 L0.0651360947,52.0203314 C0.0651360947,52.0203314 0.0651360947,52.1271953 0.0651360947,52.0203314 L34.551645,0.676804734 L34.551645,0.676804734 C34.551645,0.676804734 34.3989822,0.676804734 34.551645,0.676804734 L68.7623432,0.676804734 L68.7623432,0.676804734 L52.8151953,23.6769704 L34.207645,51.9867456 L34.207645,51.9867456 Z" id="Shape" fill="#B30EEC"></path>
                    <path d="M68.967929,51.0789112 L103.110438,51.0453254 C103.110438,51.0453254 103.110438,50.9384615 103.110438,51.0453254 L68.623929,102.388852 L68.623929,102.388852 L68.623929,102.388852 L34.4132308,102.388852 L34.4132308,102.388852 L50.3603787,79.3886864 L68.967929,51.0789112 L68.967929,51.0789112 Z" id="Shape" fill="#681485"></path>
                    <path d="M34.4132308,102.341018 L34.4132308,102.341018 C34.4132308,102.341018 34.4132308,102.448899 34.4132308,102.341018 L68.9007574,50.9974911 L68.9007574,50.9974911 C68.9007574,50.9974911 68.7480947,50.9974911 68.9007574,50.9974911 L103.110438,50.9974911 L103.110438,50.9974911 L68.263645,74.5767574 L34.4132308,102.341018 L34.4132308,102.341018 Z" id="Shape" fill="#420756"></path>
                    <path d="M34.6198343,103.29058 L68.7623432,103.324166 C68.7623432,103.324166 68.7623432,103.43103 68.7623432,103.324166 L34.2748166,51.9806391 L34.2748166,51.9806391 L34.2748166,51.9806391 L0.0651360947,51.9806391 L0.0651360947,51.9806391 L16.0112663,74.9808047 L34.6198343,103.29058 L34.6198343,103.29058 Z" id="Shape" fill="#B30EEC"></path>
                    <path d="M0.0651360947,52.0284734 L0.0651360947,52.0284734 C0.0651360947,52.0284734 0.0651360947,51.9205917 0.0651360947,52.0284734 L34.551645,103.372 L34.551645,103.372 C34.551645,103.372 34.3989822,103.372 34.551645,103.372 L68.7623432,103.372 L68.7623432,103.372 L33.9155503,79.7927337 L0.0651360947,52.0284734 L0.0651360947,52.0284734 Z" id="Shape" fill="#9D10CF"></path>
                    <path d="M0.0651360947,51.7282367 L0.0651360947,51.7282367 C0.0651360947,51.7282367 0.0651360947,51.8351006 0.0651360947,51.7282367 L34.551645,0.383692308 L34.551645,0.383692308 C34.551645,0.383692308 34.3989822,0.383692308 34.551645,0.383692308 L68.7623432,0.383692308 L68.7623432,0.383692308 L33.9155503,23.9629586 L0.0651360947,51.7282367 L0.0651360947,51.7282367 Z" id="Shape" fill="#9D10CF"></path>
                </g>
                <g id="Group-Copy-24" transform="translate(2.000901, 0.596068)">
                    <path d="M68.967929,51.6946509 L103.110438,51.7282367 C103.110438,51.7282367 103.110438,51.8351006 103.110438,51.7282367 L68.623929,0.383692308 L68.623929,0.383692308 L68.623929,0.383692308 L34.4132308,0.383692308 L34.4132308,0.383692308 L50.3603787,23.3848757 L68.967929,51.6946509 L68.967929,51.6946509 Z" id="Shape" fill="#420756"></path>
                    <path d="M103.110438,52.1475503 L103.110438,52.1475503 C103.110438,52.1475503 103.110438,52.2544142 103.110438,52.1475503 L68.623929,0.804023669 L68.623929,0.804023669 L68.623929,0.804023669 L34.4132308,0.804023669 L34.4132308,0.804023669 L69.2600237,24.3832899 L103.110438,52.1475503 L103.110438,52.1475503 Z" id="Shape" fill="#4F1165"></path>
                    <path d="M34.207645,51.9867456 L0.0651360947,52.0203314 C0.0651360947,52.0203314 0.0651360947,52.1271953 0.0651360947,52.0203314 L34.551645,0.676804734 L34.551645,0.676804734 C34.551645,0.676804734 34.3989822,0.676804734 34.551645,0.676804734 L68.7623432,0.676804734 L68.7623432,0.676804734 L52.8151953,23.6769704 L34.207645,51.9867456 L34.207645,51.9867456 Z" id="Shape" fill="#B30EEC"></path>
                    <path d="M68.967929,51.0789112 L103.110438,51.0453254 C103.110438,51.0453254 103.110438,50.9384615 103.110438,51.0453254 L68.623929,102.388852 L68.623929,102.388852 L68.623929,102.388852 L34.4132308,102.388852 L34.4132308,102.388852 L50.3603787,79.3886864 L68.967929,51.0789112 L68.967929,51.0789112 Z" id="Shape" fill="#681485"></path>
                    <path d="M34.4132308,102.341018 L34.4132308,102.341018 C34.4132308,102.341018 34.4132308,102.448899 34.4132308,102.341018 L68.9007574,50.9974911 L68.9007574,50.9974911 C68.9007574,50.9974911 68.7480947,50.9974911 68.9007574,50.9974911 L103.110438,50.9974911 L103.110438,50.9974911 L68.263645,74.5767574 L34.4132308,102.341018 L34.4132308,102.341018 Z" id="Shape" fill="#420756"></path>
                    <path d="M34.6198343,103.29058 L68.7623432,103.324166 C68.7623432,103.324166 68.7623432,103.43103 68.7623432,103.324166 L34.2748166,51.9806391 L34.2748166,51.9806391 L34.2748166,51.9806391 L0.0651360947,51.9806391 L0.0651360947,51.9806391 L16.0112663,74.9808047 L34.6198343,103.29058 L34.6198343,103.29058 Z" id="Shape" fill="#B30EEC"></path>
                    <path d="M0.0651360947,52.0284734 L0.0651360947,52.0284734 C0.0651360947,52.0284734 0.0651360947,51.9205917 0.0651360947,52.0284734 L34.551645,103.372 L34.551645,103.372 C34.551645,103.372 34.3989822,103.372 34.551645,103.372 L68.7623432,103.372 L68.7623432,103.372 L33.9155503,79.7927337 L0.0651360947,52.0284734 L0.0651360947,52.0284734 Z" id="Shape" fill="#9D10CF"></path>
                    <path d="M0.0651360947,51.7282367 L0.0651360947,51.7282367 C0.0651360947,51.7282367 0.0651360947,51.8351006 0.0651360947,51.7282367 L34.551645,0.383692308 L34.551645,0.383692308 C34.551645,0.383692308 34.3989822,0.383692308 34.551645,0.383692308 L68.7623432,0.383692308 L68.7623432,0.383692308 L33.9155503,23.9629586 L0.0651360947,51.7282367 L0.0651360947,51.7282367 Z" id="Shape" fill="#9D10CF"></path>
                </g>
                <g id="Group-Copy-23" transform="translate(0.983150, 103.388968)">
                    <path d="M68.967929,51.6946509 L103.110438,51.7282367 C103.110438,51.7282367 103.110438,51.8351006 103.110438,51.7282367 L68.623929,0.383692308 L68.623929,0.383692308 L68.623929,0.383692308 L34.4132308,0.383692308 L34.4132308,0.383692308 L50.3603787,23.3848757 L68.967929,51.6946509 L68.967929,51.6946509 Z" id="Shape" fill="#420756"></path>
                    <path d="M103.110438,52.1475503 L103.110438,52.1475503 C103.110438,52.1475503 103.110438,52.2544142 103.110438,52.1475503 L68.623929,0.804023669 L68.623929,0.804023669 L68.623929,0.804023669 L34.4132308,0.804023669 L34.4132308,0.804023669 L69.2600237,24.3832899 L103.110438,52.1475503 L103.110438,52.1475503 Z" id="Shape" fill="#4F1165"></path>
                    <path d="M34.207645,51.9867456 L0.0651360947,52.0203314 C0.0651360947,52.0203314 0.0651360947,52.1271953 0.0651360947,52.0203314 L34.551645,0.676804734 L34.551645,0.676804734 C34.551645,0.676804734 34.3989822,0.676804734 34.551645,0.676804734 L68.7623432,0.676804734 L68.7623432,0.676804734 L52.8151953,23.6769704 L34.207645,51.9867456 L34.207645,51.9867456 Z" id="Shape" fill="#B30EEC"></path>
                    <path d="M68.967929,51.0789112 L103.110438,51.0453254 C103.110438,51.0453254 103.110438,50.9384615 103.110438,51.0453254 L68.623929,102.388852 L68.623929,102.388852 L68.623929,102.388852 L34.4132308,102.388852 L34.4132308,102.388852 L50.3603787,79.3886864 L68.967929,51.0789112 L68.967929,51.0789112 Z" id="Shape" fill="#681485"></path>
                    <path d="M34.4132308,102.341018 L34.4132308,102.341018 C34.4132308,102.341018 34.4132308,102.448899 34.4132308,102.341018 L68.9007574,50.9974911 L68.9007574,50.9974911 C68.9007574,50.9974911 68.7480947,50.9974911 68.9007574,50.9974911 L103.110438,50.9974911 L103.110438,50.9974911 L68.263645,74.5767574 L34.4132308,102.341018 L34.4132308,102.341018 Z" id="Shape" fill="#420756"></path>
                    <path d="M34.6198343,103.29058 L68.7623432,103.324166 C68.7623432,103.324166 68.7623432,103.43103 68.7623432,103.324166 L34.2748166,51.9806391 L34.2748166,51.9806391 L34.2748166,51.9806391 L0.0651360947,51.9806391 L0.0651360947,51.9806391 L16.0112663,74.9808047 L34.6198343,103.29058 L34.6198343,103.29058 Z" id="Shape" fill="#B30EEC"></path>
                    <path d="M0.0651360947,52.0284734 L0.0651360947,52.0284734 C0.0651360947,52.0284734 0.0651360947,51.9205917 0.0651360947,52.0284734 L34.551645,103.372 L34.551645,103.372 C34.551645,103.372 34.3989822,103.372 34.551645,103.372 L68.7623432,103.372 L68.7623432,103.372 L33.9155503,79.7927337 L0.0651360947,52.0284734 L0.0651360947,52.0284734 Z" id="Shape" fill="#9D10CF"></path>
                    <path d="M0.0651360947,51.7282367 L0.0651360947,51.7282367 C0.0651360947,51.7282367 0.0651360947,51.8351006 0.0651360947,51.7282367 L34.551645,0.383692308 L34.551645,0.383692308 C34.551645,0.383692308 34.3989822,0.383692308 34.551645,0.383692308 L68.7623432,0.383692308 L68.7623432,0.383692308 L33.9155503,23.9629586 L0.0651360947,51.7282367 L0.0651360947,51.7282367 Z" id="Shape" fill="#9D10CF"></path>
                </g>
            </g>
            <text id="Dynamite-Apps-LLC" font-family="HelveticaNeue-Medium, Helvetica Neue" font-size="64" font-weight="400" fill="#121929">
                <tspan x="178.708615" y="120.65439">Dynamite Apps LLC</tspan>
            </text>
        </g>
    </g>
</svg>