<?xml version="1.0" encoding="UTF-8"?>
<svg width="25px" height="24px" viewBox="0 0 25 24" version="1.1" xmlns="http://www.w3.org/2000/svg" xmlns:xlink="http://www.w3.org/1999/xlink">
    <!-- Generator: Sketch 63.1 (92452) - https://sketch.com -->
    <title>Combined Shape</title>
    <desc>Created with Sketch.</desc>
    <g id="Page-2" stroke="none" stroke-width="1" fill="none" fill-rule="evenodd">
        <path d="M23.9633667,0 C24.5156514,-1.01453063e-16 24.9633667,0.44771525 24.9633667,1 L24.9633667,23 C24.9633667,23.5522847 24.5156514,24 23.9633667,24 L1.96336668,24 C1.41108193,24 0.963366678,23.5522847 0.963366678,23 L0.963366678,1 C0.963366678,0.44771525 1.41108193,1.01453063e-16 1.96336668,0 L23.9633667,0 Z M7.60043693,7.96858158 L5.06772208,7.96858158 L5.06772208,19.186355 L7.60043693,19.186355 L7.60043693,7.96858158 Z M17.3009058,7.74299564 C15.6295191,7.74299564 14.5015894,8.51203861 13.9683863,9.76301517 L13.7940699,9.76301517 L13.7940699,7.96858158 L11.3433863,7.96858158 L11.3433863,19.186355 L13.886355,19.186355 L13.886355,12.6546167 C13.886355,11.0037378 14.8399683,9.95783939 16.3575464,9.95783939 C17.9058863,9.95783939 18.6236597,10.8191675 18.6236597,12.5315699 L18.6236597,19.186355 L21.1666285,19.186355 L21.1666285,11.9265894 C21.1666285,9.25031986 19.8028589,7.74299564 17.3009058,7.74299564 Z M6.32895255,3.33381596 C5.40610099,3.33381596 4.7601049,3.92854252 4.7601049,4.73860111 C4.7601049,5.54865971 5.40610099,6.14338627 6.32895255,6.14338627 C7.26205802,6.14338627 7.89780021,5.54865971 7.89780021,4.73860111 C7.89780021,3.92854252 7.26205802,3.33381596 6.32895255,3.33381596 Z" id="Combined-Shape" fill="#869AB8"></path>
    </g>
</svg>